<svg xmlns="http://www.w3.org/2000/svg" viewBox="0 0 89.000000 89.000000" preserveAspectRatio="xMidYMid meet">
<title>Aranea Command Center mimetypes/audio-x-generic glyph</title>
<metadata>Source glyph U+F001 from JetBrainsMono Nerd Font</metadata>
<g transform="translate(0.000000,89.000000) scale(0.100000,-0.100000)"
fill="#3bff9e">
<path d="M815 881 c-6 -5 -134 -46 -285 -91 -151 -45 -280 -86 -287 -92 -9 -7
-13 -67 -15 -220 l-3 -211 -60 -1 c-37 -1 -71 -9 -90 -20 -32 -18 -75 -76 -75
-99 0 -44 72 -127 110 -127 10 0 22 -5 25 -10 8 -12 39 -13 63 -1 9 4 34 16
55 27 63 30 67 48 67 267 0 144 3 197 13 204 25 19 439 135 448 126 5 -5 8
-65 7 -134 l-3 -124 -45 3 c-56 4 -123 -21 -150 -56 -24 -30 -26 -91 -5 -131
19 -38 78 -65 142 -64 65 0 111 26 140 78 21 38 21 52 22 336 l1 296 -26 27
c-29 28 -35 31 -49 17z"/>
</g>
</svg>
